#!OML:ASF F:\VICON\USERDATA\INSTALL\rory3\rory3.ASF
:FULLY-SPECIFIED
:DEGREES
70
root 0.4584354707570976 18.9959307183039 -15.116427418406877 9.268126408644745 -0.1454918445894149 -0.139464078805139
lfemur -31.261646933998183 7.20734387855091 -19.523702392311723
ltibia 37.994818949150684
lfoot -9.946651972482496 2.69025271122495
ltoes 5.889836265864793
rfemur -19.120619855017317 -2.9328545167985207 17.998406249251243
rtibia 29.401077515012624
rfoot -14.596822563291074 -4.022241247923112
rtoes 9.35819554366984
lowerback 10.60313991310193 -0.21868996453458997 -0.6905072669035731
upperback 9.084976133566151 -0.35486422206324636 1.4511220584428024
thorax 3.316138286787837 -0.2845359227529124 1.4757929336337865
lowerneck -13.326103927281824 0.914872061317896 -2.0708217848968293
upperneck 24.466341298197435 1.6720719267325725 -1.0601951995581524
head 10.083388930466114 0.5472232661927101 0.13469139088790694
lclavicle -1.1963218680750686e-17 -8.159336546873137e-16
lhumerus -17.444875724444817 -9.077449489974466 89.99090235724525
lradius 23.510198825337188
lwrist 12.931749733751571
lhand -25.854293681305762 -2.834373780262011
lfingers 7.125019999999999
lthumb -0.006995381382071675 26.53342625632945
rclavicle -1.1675465953966947e-17 -8.159970423085101e-16
rhumerus -21.17013465783173 1.4824901934345203 -83.49347046937923
rradius 33.64164224785057
rwrist 21.75465431465807
rhand -18.344654270096985 -25.605807935227684
rfingers 7.125019999999999
rthumb 8.329018550813586 -55.32776361862308
71
root 0.449592181715025 19.03089059902348 -15.075665818883056 9.28784535775092 -0.12678802243533727 -0.15405582385924266
lfemur -31.620650279425384 7.17354722900757 -19.48989321510723
ltibia 38.671181585421
lfoot -9.93098159939193 2.6668481500451255
ltoes 6.141794853817179
rfemur -19.344762582366343 -2.9365194002379336 18.09523024379444
rtibia 29.290681848617808
rfoot -14.561718822689567 -3.982610606718332
rtoes 9.239710387145733
lowerback 10.369494911180599 -0.2634949436750521 -0.777390357689494
upperback 8.840847580777481 -0.41467196885554614 1.455364186222968
thorax 3.3108052171967874 -0.31036809367538787 1.4738175779828473
lowerneck -13.424740707416303 0.9537617770026068 -2.046030875998133
upperneck 25.06315900681023 1.7106015542274557 -1.0255649278755312
head 10.389928048060504 0.5821357066830738 0.12477597389991935
lclavicle -1.1886432000731903e-17 -8.158318551899572e-16
lhumerus -17.26106456914158 -9.787193925300741 90.31584621352881
lradius 23.815471283880047
lwrist 13.917013143458828
lhand -25.91847546535663 -2.855024563340128
lfingers 7.125019999999999
lthumb -0.1698896529950652 26.41653012326852
rclavicle -1.1701060576696901e-17 -8.16031302336891e-16
rhumerus -21.2392493577412 0.8149190505705093 -83.26192566185463
rradius 33.354244339627876
rwrist 21.882407526833916
rhand -18.30805214555707 -25.651530659663585
rfingers 7.125019999999999
rthumb 8.293381904804885 -55.38930763910536
72
root 0.44031017746239515 19.06016406439626 -15.032729184129385 9.345698083654277 -0.06897778803790744 -0.1992489920282391
lfemur -31.914835406880186 7.127574958156148 -19.44343921224557
ltibia 39.28149380480488
lfoot -9.85667398325322 2.6272506492473493
ltoes 6.572136352765184
rfemur -19.427017445430998 -2.9488983794384125 18.23056376688072
rtibia 29.014840890634584
rfoot -14.501979761761046 -3.9835654478441453
rtoes 9.199921547762205
lowerback 10.132261237478401 -0.307657315744998 -0.8139858339613231
upperback 8.58853337527227 -0.46966393788729593 1.4698975258705667
thorax 3.2699657176502686 -0.33242667874505494 1.4671512491185912
lowerneck -13.538667260002072 0.9297797838964001 -2.028573393754159
upperneck 25.705107643494273 1.696531330201719 -0.9792409402050497
head 10.705556492436175 0.5907292995885658 0.11432379521257774
lclavicle -1.1515519256298537e-17 -8.153438805145852e-16
lhumerus -17.193195380814988 -10.671059989144027 90.58495904551813
lradius 24.111455573262567
lwrist 14.989217711545994
lhand -25.920887498021134 -2.867245564460105
lfingers 7.125019999999999
lthumb -0.29982965100245873 26.3083591200576
rclavicle -1.1573142768488301e-17 -8.158623176821147e-16
rhumerus -21.295424339393936 0.26142665013374433 -83.0353791516018
rradius 33.06730982915909
rwrist 21.92884436109241
rhand -18.273300428919782 -25.705653602234673
rfingers 7.125019999999999
rthumb 8.256990599988848 -55.45546870201114
73
root 0.4304310348611793 19.072316080934584 -15.002393423306968 9.378212532702776 0.014555338297191689 -0.2552042321154959
lfemur -32.019016608075745 7.076880196531599 -19.39314217384247
ltibia 39.65893669545766
lfoot -9.805250940909039 2.607750966090679
ltoes 6.974970364523748
rfemur -19.430174341296954 -2.9957078587967523 18.367803437517765
rtibia 28.712856322637894
rfoot -14.473183520034164 -3.9871372388590482
rtoes 9.16180511275529
lowerback 9.916520790577604 -0.3475718256086584 -0.8288529275275062
upperback 8.35183582240209 -0.5139828542889981 1.4901177367075693
thorax 3.2091345533602063 -0.34937168128191903 1.4634262513001346
lowerneck -13.6474606673743 0.8725435830586443 -2.031150802494661
upperneck 26.401739050154323 1.629592933063041 -0.8999334848107261
head 11.017261794550684 0.5711401501479658 0.11805227187203671
lclavicle -1.1200344289585845e-17 -8.149329317922362e-16
lhumerus -17.196664388351316 -11.52435879165486 90.73245014380643
lradius 24.32460012000348
lwrist 15.91036405946664
lhand -25.858539658897662 -2.8749910886779566
lfingers 7.125019999999999
lthumb -0.31934341938843724 26.246957298525174
rclavicle -1.156409772373474e-17 -8.158498567379603e-16
rhumerus -21.325856970892275 -0.08464587176779181 -82.84174696639259
rradius 32.838098909004664
rwrist 21.905173828410156
rhand -18.24543661502153 -25.7533993903324
rfingers 7.125019999999999
rthumb 8.204175714397644 -55.51622101295662
